<?xml version="1.0" encoding="UTF-8"?>
<!-- Generated by Pixelmator Pro 3.6.17 -->
<svg width="41" height="40" viewBox="0 0 41 40" xmlns="http://www.w3.org/2000/svg">
    <g id="Group">
        <g id="g1">
            <path id="Path" fill="#f7931a" stroke="none" d="M 39.425941 24.762505 C 36.813274 35.24189 26.199406 41.619499 15.718809 39.006226 C 5.242484 36.393559 -1.135127 25.779083 1.478759 15.300316 C 4.090192 4.81971 14.704062 -1.558514 25.181608 1.05415 C 35.661598 3.666813 42.038593 14.282513 39.425941 24.762505 Z"/>
            <path id="path1" fill="#ffffff" stroke="none" d="M 29.073709 17.243614 C 29.463099 14.64073 27.481285 13.24148 24.771429 12.308039 L 25.650469 8.782106 L 23.504221 8.247225 L 22.648417 11.680243 C 22.08419 11.539646 21.504686 11.406994 20.928848 11.275566 L 21.790773 7.819931 L 19.645746 7.285049 L 18.7661 10.809763 C 18.299068 10.703398 17.840599 10.598255 17.39558 10.487612 L 17.398026 10.476606 L 14.438151 9.737555 L 13.867201 12.029902 C 13.867201 12.029902 15.459623 12.394842 15.425998 12.417459 C 16.295254 12.634468 16.452358 13.209692 16.426073 13.665718 L 15.424775 17.682518 C 15.484677 17.697802 15.56232 17.719809 15.647901 17.754042 C 15.576377 17.736315 15.499965 17.716749 15.42111 17.697802 L 14.01758 23.324747 C 13.911218 23.588823 13.641632 23.984943 13.034015 23.834564 C 13.055403 23.865742 11.473996 23.445169 11.473996 23.445169 L 10.408516 25.901951 L 13.20151 26.598213 C 13.721103 26.728422 14.230314 26.864738 14.731568 26.993111 L 13.843359 30.559389 L 15.987164 31.094269 L 16.86681 27.565889 C 17.452433 27.724827 18.020929 27.871536 18.577208 28.009689 L 17.700611 31.521561 L 19.846859 32.056442 L 20.735069 28.496887 C 24.394875 29.189484 27.146912 28.910124 28.305311 25.599976 C 29.23875 22.934742 28.258852 21.397343 26.333284 20.394823 C 27.735584 20.071451 28.791904 19.14901 29.073709 17.243614 Z M 24.169922 24.120039 C 23.506664 26.785269 19.019176 25.344456 17.564299 24.983181 L 18.742867 20.258505 C 20.197744 20.621611 24.863129 21.34049 24.169922 24.120039 Z M 24.833784 17.205099 C 24.228601 19.629486 20.493605 18.397734 19.282028 18.095753 L 20.350567 13.810593 C 21.562145 14.112574 25.464029 14.676184 24.833784 17.205099 Z"/>
            <g id="g2">
                <path id="path2" fill="#4d4d4d" stroke="none" d="M 58.214611 12.306816 C 59.800915 12.306816 61.171436 12.591066 62.323112 13.149178 C 63.480289 13.71279 64.43512 14.472012 65.20108 15.426853 C 65.956635 16.386581 66.519012 17.508303 66.882133 18.793848 C 67.24279 20.083063 67.423729 21.468863 67.423729 22.952469 C 67.423729 25.231365 67.006226 27.384338 66.163254 29.413826 C 65.320267 31.446371 64.176559 33.209339 62.72168 34.71312 C 61.268013 36.215065 59.551514 37.399139 57.572147 38.273899 C 55.595837 39.149269 53.447155 39.586948 51.140129 39.586948 C 50.841812 39.586948 50.317326 39.578392 49.576454 39.56311 C 48.835564 39.547829 47.984032 39.47142 47.030415 39.342434 C 46.070683 39.208561 45.055935 39.010502 43.984344 38.745201 C 42.913353 38.484791 41.896164 38.119846 40.938274 37.65649 L 49.503696 1.666054 L 57.175426 0.477093 L 54.108574 13.248817 C 54.765087 12.952951 55.426506 12.723717 56.086712 12.556833 C 56.747513 12.392395 57.456615 12.306816 58.214611 12.306816 Z M 51.779533 33.500923 C 52.934883 33.500923 54.023602 33.216675 55.046295 32.658566 C 56.072029 32.099842 56.95718 31.345512 57.698685 30.405954 C 58.440189 29.46212 59.027023 28.399084 59.454918 27.211342 C 59.882832 26.023602 60.099228 24.784512 60.099228 23.495296 C 60.099228 21.911436 59.83453 20.676018 59.306999 19.782921 C 58.779453 18.89349 57.803207 18.446022 56.385624 18.446022 C 55.921051 18.446022 55.322594 18.534662 54.580475 18.692984 C 53.83593 18.86109 53.169624 19.210136 52.572395 19.735237 L 49.306866 33.298592 C 49.503696 33.333435 49.677917 33.366444 49.826469 33.397617 C 49.971943 33.431236 50.132713 33.455078 50.292885 33.471584 C 50.4622 33.490532 50.655991 33.500313 50.89011 33.500313 C 51.124233 33.500313 51.417046 33.500923 51.779533 33.500923 Z"/>
                <path id="path3" fill="#4d4d4d" stroke="none" d="M 75.381531 38.89497 L 68.053978 38.89497 L 74.242073 12.855757 L 81.619759 12.855757 L 75.381531 38.89497 Z M 78.947205 9.683149 C 77.924515 9.683149 76.997185 9.378727 76.174377 8.768658 C 75.344856 8.162254 74.934074 7.228813 74.934074 5.970772 C 74.934074 5.27879 75.074654 4.629597 75.353424 4.017082 C 75.636436 3.405788 76.006279 2.879471 76.469635 2.432003 C 76.932373 1.988205 77.468483 1.633656 78.077332 1.36652 C 78.689842 1.103664 79.341484 0.972237 80.035919 0.972237 C 81.057999 0.972237 81.980438 1.276661 82.806282 1.88673 C 83.629089 2.499855 84.042938 3.4333 84.042938 4.684616 C 84.042938 5.37904 83.902946 6.030682 83.621758 6.641972 C 83.3424 7.253265 82.972557 7.779587 82.509201 8.227051 C 82.050117 8.671461 81.509117 9.024788 80.901505 9.289476 C 80.288383 9.556612 79.639183 9.683149 78.947205 9.683149 Z"/>
                <path id="path4" fill="#4d4d4d" stroke="none" d="M 88.040176 6.369335 L 95.714943 5.180374 L 93.83033 12.855757 L 102.049767 12.855757 L 100.565544 18.8941 L 92.39563 18.8941 L 90.219437 28.002354 C 90.018929 28.761578 89.905228 29.470678 89.873436 30.129648 C 89.837379 30.791679 89.92112 31.36018 90.119179 31.838825 C 90.31601 32.318687 90.66996 32.688522 91.183441 32.950153 C 91.694481 33.216064 92.426193 33.349937 93.385925 33.349937 C 94.176323 33.349937 94.946556 33.27475 95.691101 33.125591 C 96.431381 32.978882 97.181427 32.774712 97.940651 32.507576 L 98.48716 38.153469 C 97.496864 38.516579 96.42466 38.828949 95.26931 39.091805 C 94.112129 39.358326 92.742226 39.486698 91.158981 39.486698 C 88.88253 39.486698 87.117737 39.148655 85.860306 38.47562 C 84.604721 37.797703 83.717102 36.87159 83.185898 35.699131 C 82.662025 34.530956 82.427902 33.184277 82.493309 31.667048 C 82.561157 30.146152 82.79039 28.547626 83.185898 26.864128 L 88.040176 6.369335 Z"/>
                <path id="path5" fill="#4d4d4d" stroke="none" d="M 101.726379 28.499943 C 101.726379 26.257114 102.089508 24.142044 102.815094 22.162069 C 103.539474 20.180256 104.582954 18.447245 105.936966 16.95997 C 107.286087 15.480034 108.929863 14.307577 110.864594 13.446875 C 112.790161 12.591066 114.94619 12.159496 117.322281 12.159496 C 118.809563 12.159496 120.137901 12.300093 121.306686 12.581898 C 122.480377 12.866148 123.542191 13.233534 124.502518 13.69445 L 121.975433 19.440594 C 121.315247 19.17285 120.62999 18.93689 119.921501 18.722939 C 119.212402 18.504707 118.346825 18.399567 117.322899 18.399567 C 114.877113 18.399567 112.943596 19.242537 111.504616 20.922979 C 110.071129 22.604643 109.349197 24.868259 109.349197 27.70771 C 109.349197 29.390596 109.712318 30.751335 110.440971 31.792364 C 111.16597 32.833397 112.50531 33.351162 114.449837 33.351162 C 115.409546 33.351162 116.335663 33.250908 117.222641 33.055294 C 118.116356 32.857239 118.90554 32.607826 119.600578 32.313187 L 120.147675 38.203594 C 119.220963 38.563038 118.198883 38.887634 117.077766 39.171883 C 115.954224 39.446354 114.616707 39.588783 113.065865 39.588783 C 111.018646 39.588783 109.285637 39.289249 107.86805 38.699356 C 106.449852 38.100288 105.278008 37.305 104.35495 36.297588 C 103.427002 35.287735 102.760696 34.108551 102.348679 32.75515 C 101.936684 31.402969 101.726379 29.982328 101.726379 28.499943 Z"/>
                <path id="path6" fill="#4d4d4d" stroke="none" d="M 134.276474 39.587563 C 132.527573 39.587563 131.008499 39.321041 129.719894 38.793495 C 128.434967 38.265949 127.370712 37.525673 126.528954 36.565945 C 125.685982 35.611107 125.055138 34.479607 124.622955 33.17572 C 124.190773 31.872446 123.982933 30.429184 123.982933 28.847769 C 123.982933 26.864128 124.301414 24.881096 124.945091 22.903564 C 125.585732 20.921757 126.536285 19.141062 127.794334 17.558428 C 129.042587 15.973347 130.582443 14.677406 132.395538 13.666939 C 134.206787 12.663198 136.290085 12.158272 138.630112 12.158272 C 140.347214 12.158272 141.858322 12.425406 143.164673 12.952951 C 144.464874 13.479273 145.535873 14.225662 146.382492 15.180502 C 147.219986 16.14023 147.856323 17.266838 148.284241 18.572559 C 148.715195 19.873388 148.927917 21.32032 148.927917 22.902954 C 148.927917 24.880484 148.613724 26.863518 147.990204 28.847157 C 147.366074 30.821022 146.439972 32.605995 145.217392 34.192299 C 143.997253 35.774933 142.471466 37.070263 140.638794 38.076447 C 138.808594 39.082634 136.686188 39.587563 134.276474 39.587563 Z M 137.938721 18.398954 C 136.852463 18.398954 135.89212 18.71438 135.069931 19.337286 C 134.24469 19.967527 133.551483 20.759766 132.992767 21.715212 C 132.427917 22.67494 132.009186 23.721476 131.726166 24.859091 C 131.445572 25.999149 131.308044 27.076859 131.308044 28.100769 C 131.308044 29.753094 131.574554 31.039867 132.09845 31.965973 C 132.629654 32.887188 133.583893 33.350548 134.970901 33.350548 C 136.060837 33.350548 137.016281 33.037567 137.843369 32.407936 C 138.663727 31.782585 139.357544 30.989738 139.920532 30.032455 C 140.481705 29.077614 140.904114 28.028028 141.187134 26.88858 C 141.46405 25.752188 141.605255 24.668365 141.605255 23.646286 C 141.605255 21.998243 141.339951 20.708416 140.811188 19.783531 C 140.28302 18.862312 139.324524 18.398954 137.938721 18.398954 Z"/>
                <path id="path7" fill="#4d4d4d" stroke="none" d="M 156.91507 38.89497 L 149.58139 38.89497 L 155.769516 12.855757 L 163.150848 12.855757 L 156.91507 38.89497 Z M 160.475235 9.683149 C 159.453156 9.683149 158.526428 9.378727 157.704849 8.768658 C 156.879608 8.162254 156.465164 7.228813 156.465164 5.970772 C 156.465164 5.27879 156.60759 4.629597 156.886963 4.017082 C 157.166321 3.405788 157.538574 2.879471 158.001953 2.432003 C 158.46225 1.988205 159.00325 1.633656 159.61087 1.36652 C 160.219711 1.103664 160.871368 0.972237 161.563339 0.972237 C 162.58786 0.972237 163.513367 1.276661 164.337372 1.88673 C 165.162003 2.499855 165.578293 3.4333 165.578293 4.684616 C 165.578293 5.37904 165.430359 6.030682 165.153442 6.641972 C 164.876526 7.253265 164.504272 7.779587 164.04274 8.227051 C 163.578156 8.671461 163.043884 9.024788 162.435043 9.289476 C 161.821304 9.556612 161.170883 9.683149 160.475235 9.683149 Z"/>
                <path id="path8" fill="#4d4d4d" stroke="none" d="M 168.428757 14.042276 C 168.985031 13.879669 169.606094 13.684055 170.281586 13.471327 C 170.959503 13.258596 171.716888 13.060539 172.562927 12.882042 C 173.399796 12.698042 174.344223 12.548887 175.382813 12.433353 C 176.421402 12.315374 177.604874 12.257914 178.919754 12.257914 C 182.784348 12.257914 185.448349 13.383303 186.919128 15.627354 C 188.388672 17.87141 188.642975 20.942539 187.689346 24.835251 L 184.318695 38.89497 L 176.942841 38.89497 L 180.209579 25.131115 C 180.408875 24.271637 180.565353 23.440893 180.680878 22.629095 C 180.797638 21.824635 180.790924 21.115538 180.654602 20.501797 C 180.524399 19.895397 180.217529 19.399025 179.741333 19.014524 C 179.257797 18.636137 178.527313 18.446022 177.536407 18.446022 C 176.580948 18.446022 175.608994 18.548719 174.616867 18.74678 L 169.81395 38.89436 L 162.435043 38.89436 L 168.428757 14.042276 Z"/>
            </g>
        </g>
    </g>
</svg>
