<svg xmlns="http://www.w3.org/2000/svg" id="Layer_2" data-name="Layer 2" viewBox="0 0 179.38 58.72"><defs><style>      .cls-1 {        fill: #231f20;      }      .cls-2 {        fill: none;        stroke: #f79422;        stroke-linecap: round;        stroke-linejoin: round;        stroke-width: 5px;      }    </style></defs><g id="Layer_1-2" data-name="Layer 1"><g><path class="cls-2" d="M26.61,49.38h19.45c2.58,0,4.67-2.09,4.67-4.67V23.87c0-1.37-.6-2.68-1.65-3.56-2.14-1.81-4.27-3.61-6.41-5.42V4.11h-7.93v4.07c-1.8-1.52-3.6-3.05-5.41-4.57-1.76-1.49-4.34-1.47-6.08,.04-6.38,5.55-12.77,11.11-19.15,16.66-1.02,.89-1.6,2.17-1.6,3.52v20.88c0,2.58,2.09,4.67,4.67,4.67h10.77"></path><path class="cls-2" d="M29.49,23.54c3.58,0,6.49,2.72,6.49,6.08s-2.9,6.08-6.49,6.08"></path><line class="cls-2" x1="29.6" y1="23.55" x2="17.94" y2="23.54"></line><line class="cls-2" x1="17.94" y1="49.38" x2="17.94" y2="23.54"></line><path class="cls-2" d="M29.68,35.7c3.89-.33,7.33,2.44,7.67,6.19s-2.53,7.06-6.42,7.39"></path><line class="cls-2" x1="26.61" y1="20.68" x2="26.61" y2="16.23"></line><line class="cls-2" x1="26.61" y1="56.22" x2="26.61" y2="49.38"></line></g><g><path class="cls-1" d="M82.45,13.23h4.89l13.39,31.76h-5.93l-3.3-8.1h-13.53l-3.3,8.1h-5.61l13.39-31.76Zm-2.35,18.46h9.28l-4.61-11.27-4.66,11.27Z"></path><path class="cls-1" d="M105.22,14.27c1.49,0,2.99,1.18,2.99,3.03,0,2.08-1.49,3.26-2.99,3.26-1.76,0-3.26-1.18-3.26-3.26,0-1.85,1.49-3.03,3.26-3.03Zm-2.71,10.36h5.2v20.36h-5.2V24.63Z"></path><path class="cls-1" d="M112,24.63h5.2v1.99c.95-1.31,2.22-2.35,4.66-2.35,1.67,0,2.49,.27,3.17,.77l-1.85,4.89c-1-.59-1.54-.77-2.62-.77-1.81,0-2.76,1-3.35,2.17v13.66h-5.2V24.63Z"></path><path class="cls-1" d="M125.76,13.32h5.2v12.58c1.27-1,3.21-1.77,5.38-1.77,6.06,0,9.68,4.34,9.68,10.36,0,6.7-4.48,10.99-11.63,10.99-3.35,0-6.79-1.09-8.64-2.26V13.32Zm5.2,17.64v8.64c1.13,.72,2.26,1.04,3.71,1.04,3.26,0,5.79-2.13,5.79-5.79,0-3.89-2.4-5.84-5.34-5.84-1.81,0-3.3,.95-4.16,1.95Z"></path><path class="cls-1" d="M147.84,18.98h5.2v5.66h6.56v4.89h-6.56v7.42c0,2.22,.72,3.66,2.44,3.66,1.4,0,2.4-.63,3.12-1.18l1.58,4.03c-1.22,1-3.39,1.99-6.02,1.99-4.62,0-6.33-2.99-6.33-8.19V18.98Z"></path><path class="cls-1" d="M179.38,41.96c-1.72,2.31-4.8,3.53-8.1,3.53-6.61,0-11.04-4.25-11.04-10.68,0-5.93,4.34-10.68,10.54-10.68,3.35,0,6.29,.86,8.19,2.76l-2.44,4.12c-1.54-1.49-3.21-1.99-5.07-1.99-2.9,0-5.66,2.22-5.66,5.79s2.81,5.84,5.88,5.84c2.22,0,3.94-1.04,5.25-2.49l2.44,3.8Z"></path></g></g></svg>