<?xml version="1.0" encoding="UTF-8"?>
<!-- Generated by Pixelmator Pro 3.6.17 -->
<svg width="1279" height="134" viewBox="0 0 1279 134" xmlns="http://www.w3.org/2000/svg">
    <path id="Path" fill="#000000" stroke="none" d="M 175.227997 1.745117 L 209.811005 1.745117 C 219.113007 1.745117 225.352997 4.026367 228.518997 8.578453 C 231.686005 13.120102 232.082001 20.536804 229.707001 30.828499 L 228.373001 36.474304 C 225.591995 48.640999 219.561005 55.911804 210.268997 58.286804 C 215.311005 59.677399 218.320999 62.901398 219.311005 67.953499 C 220.311005 72.995102 219.863007 79.672203 217.977997 87.974297 C 214.811005 101.531998 210.404999 111.802002 204.768997 118.787003 C 199.128998 125.761002 191.018997 129.244995 180.436005 129.244995 L 145.832001 129.244995 L 175.227997 1.745117 Z M 194.373001 49.682602 C 196.550995 49.682602 198.212006 48.870102 199.352997 47.245102 C 200.488007 45.609695 201.404999 43.302399 202.102997 40.328499 L 205.061005 27.557602 C 206.061005 23.406601 204.727997 21.328499 201.061005 21.328499 L 195.707001 21.328499 L 189.186005 49.682602 L 194.373001 49.682602 Z M 178.498001 106.828003 C 185.123001 106.828003 189.128998 103.662003 190.518997 97.328499 L 194.227997 81.453499 C 195.113007 77.594101 195.212006 74.677399 194.518997 72.703499 C 193.837006 70.719101 192.061005 69.724297 189.186005 69.724297 L 184.436005 69.724297 L 175.977997 106.682999 L 178.498001 106.828003 Z"/>
    <path id="path1" fill="#000000" stroke="none" d="M 222.417007 129.244995 L 251.813004 1.745117 L 276.459015 1.745117 L 247.063004 129.244995 L 222.417007 129.244995 Z"/>
    <path id="path2" fill="#000000" stroke="none" d="M 274.829987 129.244995 L 298.579987 26.224304 L 283.43399 26.224304 L 289.079987 1.745117 L 344.893005 1.745117 L 339.247009 26.224304 L 324.101013 26.224304 L 300.351013 129.244995 L 274.829987 129.244995 Z"/>
    <path id="path3" fill="#000000" stroke="none" d="M 358.825989 130.432999 C 349.518005 130.432999 342.742004 127.515999 338.492004 121.682999 C 334.242004 115.838997 333.304993 107.818001 335.679993 97.620102 L 349.179993 38.849304 C 352.148987 26.182602 356.898987 16.635696 363.429993 10.203499 C 369.955994 3.776367 378.617004 0.557617 389.408997 0.557617 C 398.809998 0.557617 405.783997 3.135742 410.325989 8.286781 C 414.877991 13.427399 416.019012 20.844101 413.742004 30.536804 L 408.700989 52.495102 L 383.325989 52.495102 L 387.783997 33.640999 C 388.575989 29.989899 388.690002 27.469101 388.138 26.078499 C 387.596985 24.693001 386.231995 23.995102 384.054993 23.995102 C 381.789001 23.995102 380.033997 24.786804 378.783997 26.370102 C 377.545013 27.953499 376.585999 30.281601 375.908997 33.349304 L 361.054993 97.328499 C 360.356995 100.693001 360.309998 103.140999 360.908997 104.682999 C 361.502991 106.213997 362.789001 106.973999 364.763 106.973999 C 368.721985 106.973999 371.440002 103.761002 372.929993 97.328499 L 378.283997 74.328499 L 403.950989 74.328499 L 398.471985 98.370102 C 393.513 119.745003 380.295013 130.432999 358.825989 130.432999 Z"/>
    <path id="path4" fill="#000000" stroke="none" d="M 436.606995 130.432999 C 426.315002 130.432999 419.216003 127.296997 415.315002 121.015999 C 411.39801 114.723999 410.77301 105.890999 413.440002 94.515999 L 427.39801 33.807602 C 429.966003 22.823196 434.565002 14.536804 441.190002 8.953453 C 447.825012 3.359695 456.294006 0.557617 466.585999 0.557617 C 476.877991 0.557617 484.049011 3.359695 488.106995 8.953453 C 492.158997 14.536804 492.903992 22.823196 490.335999 33.807602 L 476.377991 94.515999 C 473.710999 105.989998 468.987 114.844002 462.210999 121.078003 C 455.429993 127.318001 446.89801 130.432999 436.606995 130.432999 Z M 441.940002 106.973999 C 444.216003 106.973999 445.992004 105.989998 447.27301 104.015999 C 448.565002 102.031998 449.606995 99.260696 450.39801 95.703499 L 464.815002 33.349304 C 465.39801 30.588898 465.544006 28.338898 465.252991 26.599304 C 464.960999 24.864899 463.674011 23.995102 461.39801 23.995102 C 457.132996 23.995102 454.257996 27.213898 452.77301 33.640999 L 438.377991 95.849297 C 437.487 99.505501 437.263 102.276001 437.710999 104.162003 C 438.153992 106.037003 439.565002 106.973999 441.940002 106.973999 Z"/>
    <path id="path5" fill="#000000" stroke="none" d="M 484.084991 129.244995 L 513.481018 1.745117 L 538.127014 1.745117 L 508.730988 129.244995 L 484.084991 129.244995 Z"/>
    <path id="path6" fill="#000000" stroke="none" d="M 525.643982 129.244995 L 555.039978 1.745117 L 581.310974 1.745117 L 578.935974 62.745102 L 593.039978 1.745117 L 617.685974 1.745117 L 588.289978 129.244995 L 563.35199 129.244995 L 565.289978 65.411797 L 550.58197 129.244995 L 525.643982 129.244995 Z"/>
    <path id="path7" fill="#000000" stroke="none" d="M 635.632996 1.745117 L 670.216003 1.745117 C 679.518005 1.745117 685.757996 4.026367 688.924988 8.578453 C 692.091003 13.120102 692.487 20.536804 690.112 30.828499 L 688.778992 36.474304 C 685.997009 48.640999 679.966003 55.911804 670.674988 58.286804 C 675.716003 59.677399 678.72699 62.901398 679.716003 67.953499 C 680.716003 72.995102 680.268005 79.672203 678.382996 87.974297 C 675.216003 101.531998 670.809998 111.802002 665.174988 118.787003 C 659.533997 125.761002 651.424988 129.244995 640.841003 129.244995 L 606.237 129.244995 L 635.632996 1.745117 Z M 654.778992 49.682602 C 656.955994 49.682602 658.617004 48.870102 659.757996 47.245102 C 660.893005 45.609695 661.809998 43.302399 662.507996 40.328499 L 665.466003 27.557602 C 666.466003 23.406601 665.132996 21.328499 661.466003 21.328499 L 656.112 21.328499 L 649.591003 49.682602 L 654.778992 49.682602 Z M 638.903992 106.828003 C 645.528992 106.828003 649.533997 103.662003 650.924988 97.328499 L 654.632996 81.453499 C 655.518005 77.594101 655.617004 74.677399 654.924988 72.703499 C 654.242004 70.719101 652.466003 69.724297 649.591003 69.724297 L 644.841003 69.724297 L 636.382996 106.682999 L 638.903992 106.828003 Z"/>
    <path id="path8" fill="#000000" stroke="none" d="M 714.156006 130.432999 C 703.864014 130.432999 696.765015 127.296997 692.864014 121.015999 C 688.947021 114.723999 688.322021 105.890999 690.989014 94.515999 L 704.947021 33.807602 C 707.515015 22.823196 712.114014 14.536804 718.739014 8.953453 C 725.375 3.359695 733.843018 0.557617 744.13501 0.557617 C 754.427002 0.557617 761.598999 3.359695 765.656006 8.953453 C 769.708008 14.536804 770.453003 22.823196 767.88501 33.807602 L 753.927002 94.515999 C 751.26001 105.989998 746.536011 114.844002 739.76001 121.078003 C 732.979004 127.318001 724.447021 130.432999 714.156006 130.432999 Z M 719.489014 106.973999 C 721.765015 106.973999 723.541016 105.989998 724.822021 104.015999 C 726.114014 102.031998 727.156006 99.260696 727.947021 95.703499 L 742.364014 33.349304 C 742.947021 30.588898 743.093018 28.338898 742.802002 26.599304 C 742.51001 24.864899 741.223999 23.995102 738.947021 23.995102 C 734.682007 23.995102 731.807007 27.213898 730.322021 33.640999 L 715.927002 95.849297 C 715.036011 99.505501 714.812012 102.276001 715.26001 104.162003 C 715.703003 106.037003 717.114014 106.973999 719.489014 106.973999 Z"/>
    <path id="path9" fill="#000000" stroke="none" d="M 792.968018 130.432999 C 782.676025 130.432999 775.577026 127.296997 771.676025 121.015999 C 767.758972 114.723999 767.133972 105.890999 769.801025 94.515999 L 783.758972 33.807602 C 786.327026 22.823196 790.926025 14.536804 797.551025 8.953453 C 804.187012 3.359695 812.655029 0.557617 822.947021 0.557617 C 833.239014 0.557617 840.411011 3.359695 844.468018 8.953453 C 848.52002 14.536804 849.265015 22.823196 846.697021 33.807602 L 832.739014 94.515999 C 830.072021 105.989998 825.348022 114.844002 818.572021 121.078003 C 811.791016 127.318001 803.258972 130.432999 792.968018 130.432999 Z M 798.301025 106.973999 C 800.577026 106.973999 802.353027 105.989998 803.633972 104.015999 C 804.926025 102.031998 805.968018 99.260696 806.758972 95.703499 L 821.176025 33.349304 C 821.758972 30.588898 821.905029 28.338898 821.614014 26.599304 C 821.322021 24.864899 820.036011 23.995102 817.758972 23.995102 C 813.494019 23.995102 810.619019 27.213898 809.133972 33.640999 L 794.739014 95.849297 C 793.848022 99.505501 793.624023 102.276001 794.072021 104.162003 C 794.515015 106.037003 795.926025 106.973999 798.301025 106.973999 Z"/>
    <path id="path10" fill="#000000" stroke="none" d="M 841.633972 129.244995 L 871.030029 1.745117 L 896.258972 1.745117 L 884.549988 52.807602 L 908.133972 1.745117 L 933.820984 1.745117 L 906.070984 60.078499 L 907.405029 129.244995 L 880.987976 129.244995 L 881.280029 67.495102 L 867.030029 129.244995 L 841.633972 129.244995 Z"/>
    <path id="path11" fill="#000000" stroke="none" d="M 928.755005 129.246002 L 933.817017 107.579002 L 959.776001 107.579002 L 954.734009 129.246002 L 928.755005 129.246002 Z"/>
    <path id="path12" fill="#000000" stroke="none" d="M 989.026978 130.432999 C 977.44397 130.432999 969.745972 127.568001 965.94397 121.828003 C 962.125977 116.078003 961.703979 106.822998 964.672974 94.057602 L 967.484985 81.599297 L 992.588989 81.599297 L 988.880981 97.474297 C 987.390991 103.807999 988.677979 106.973999 992.734985 106.973999 C 995.010986 106.973999 996.765991 106.307999 998.005981 104.973999 C 999.23999 103.640999 1000.200012 101.390999 1000.900024 98.224297 C 1001.890015 94.073196 1002.179993 90.635696 1001.780029 87.911797 C 1001.390015 85.193001 1000.640015 82.911797 999.547974 81.078499 C 998.463989 79.245102 996.385986 76.401398 993.31897 72.536797 L 984.859985 61.557602 C 978.328979 53.239899 976.203979 44.036804 978.484985 33.953499 C 980.953979 23.068001 985.359985 14.781601 991.69397 9.099281 C 998.026978 3.406586 1005.98999 0.557617 1015.590027 0.557617 C 1027.069946 0.557617 1034.640015 3.599274 1038.300049 9.682617 C 1041.959961 15.765999 1042.26001 25.286804 1039.189941 38.245102 L 1013.210022 38.245102 L 1015.150024 29.495102 C 1015.539978 27.818001 1015.390015 26.484695 1014.690002 25.495102 C 1014 24.495102 1012.809998 23.995102 1011.130005 23.995102 C 1009.159973 23.995102 1007.530029 24.547195 1006.23999 25.640999 C 1004.950012 26.724304 1004.119995 28.203499 1003.710022 30.078499 C 1002.719971 34.245102 1004.119995 38.552399 1007.880005 42.995102 L 1019.440002 57.245102 C 1022.119995 60.620102 1024.26001 63.818001 1025.839966 66.828499 C 1027.420044 69.844101 1028.430054 73.406601 1028.880005 77.515999 C 1029.319946 81.630501 1028.900024 86.505501 1027.609985 92.140999 C 1024.640015 104.713997 1020.109985 114.239998 1014.030029 120.723999 C 1007.940002 127.197998 999.609985 130.432999 989.026978 130.432999 Z"/>
    <path id="path13" fill="#000000" stroke="none" d="M 1034.130005 129.244995 L 1063.52002 1.745117 L 1088.920044 1.745117 L 1078.380005 47.307602 L 1090.400024 47.307602 L 1100.939941 1.745117 L 1126.319946 1.745117 L 1096.920044 129.244995 L 1071.550049 129.244995 L 1084.900024 71.349297 L 1072.880005 71.349297 L 1059.52002 129.244995 L 1034.130005 129.244995 Z"/>
    <path id="path14" fill="#000000" stroke="none" d="M 1145.02002 130.432999 C 1134.719971 130.432999 1127.630005 127.296997 1123.719971 121.015999 C 1119.810059 114.723999 1119.180054 105.890999 1121.849976 94.515999 L 1135.810059 33.807602 C 1138.380005 22.823196 1142.969971 14.536804 1149.599976 8.953453 C 1156.22998 3.359695 1164.699951 0.557617 1175 0.557617 C 1185.290039 0.557617 1192.459961 3.359695 1196.52002 8.953453 C 1200.569946 14.536804 1201.310059 22.823196 1198.75 33.807602 L 1184.790039 94.515999 C 1182.119995 105.989998 1177.400024 114.844002 1170.619995 121.078003 C 1163.839966 127.318001 1155.310059 130.432999 1145.02002 130.432999 Z M 1150.349976 106.973999 C 1152.630005 106.973999 1154.400024 105.989998 1155.680054 104.015999 C 1156.969971 102.031998 1158.02002 99.260696 1158.810059 95.703499 L 1173.219971 33.349304 C 1173.810059 30.588898 1173.949951 28.338898 1173.660034 26.599304 C 1173.369995 24.864899 1172.079956 23.995102 1169.810059 23.995102 C 1165.540039 23.995102 1162.670044 27.213898 1161.180054 33.640999 L 1146.790039 95.849297 C 1145.900024 99.505501 1145.670044 102.276001 1146.119995 104.162003 C 1146.560059 106.037003 1147.969971 106.973999 1150.349976 106.973999 Z"/>
    <path id="path15" fill="#000000" stroke="none" d="M 1223.079956 1.745117 L 1256.790039 1.745117 C 1266.959961 1.745117 1273.459961 5.036774 1276.290039 11.620102 C 1279.119995 18.193001 1279.099976 27.807602 1276.219971 40.474304 C 1273.25 53.140999 1269.089966 62.693001 1263.73999 69.120102 C 1258.410034 75.552399 1250.73999 78.765999 1240.73999 78.765999 L 1230.349976 78.765999 L 1218.790039 129.244995 L 1193.680054 129.244995 L 1223.079956 1.745117 Z M 1237.180054 55.765999 C 1240.25 55.765999 1242.619995 55.198196 1244.310059 54.057602 C 1245.97998 52.922195 1247.300049 51.286804 1248.23999 49.161804 C 1249.189941 47.036804 1250.150024 43.995102 1251.140015 40.036804 C 1252.319946 34.693001 1252.589966 30.828499 1251.949951 28.453499 C 1251.310059 26.078499 1249.209961 24.890999 1245.640015 24.890999 L 1242.829956 24.890999 L 1235.699951 55.765999 L 1237.180054 55.765999 Z"/>
    <path id="path16" fill="#000000" stroke="none" d="M 89.666702 104.088997 L 78.333397 92.531799 C 75.604202 89.797401 73.6511 90.078598 72.052101 93.667198 C 69.515701 99.302597 67.843803 105.223999 66.7136 111.239998 C 65.5886 116.969002 64.927101 122.796997 64.083397 128.531998 C 63.989601 129.567993 63.703201 130.697998 63.234402 131.645996 C 62.484402 133.251007 60.885502 133.906998 59.2136 133.343994 C 56.671902 132.494995 55.005199 130.604996 54.442699 128.084 C 53.7813 125.438004 53.3125 122.822998 53.0313 120.084 C 51.807301 108.245003 51.619801 96.3078 51.5261 84.3703 C 51.5261 84.1828 51.5261 83.896301 51.5261 83.708801 C 51.807301 80.787003 50.489601 79.297401 47.880199 78.073402 C 42.541698 75.526497 36.828201 74.792198 31.114599 73.662003 C 23.140699 71.963997 15.099 70.287003 7.12504 68.4953 C 5.52608 68.115097 3.95316 67.458801 2.44795 66.604698 C -0.374964 65.000504 -0.562463 62.385895 1.9792 60.3078 C 3.57816 59.083801 5.43233 58.328598 7.50525 58.422401 C 14.1563 58.422401 20.8125 58.609901 27.4688 58.516098 C 33.369801 58.422401 39.177101 58.042198 45.083401 57.667198 C 46.869801 57.573395 48.630199 57.193199 50.416698 56.818199 C 52.583401 56.3442 53.9688 54.927597 54.817699 52.974503 C 56.323002 49.505699 57.073002 45.823395 57.734402 42.167198 C 59.614601 30.703598 60.177101 19.240097 60.364601 7.656754 C 60.364601 6.901543 60.458401 6.146332 60.645901 5.391113 C 61.2136 3.693207 62.8125 3.125504 64.291702 3.880707 C 65.984398 4.82341 67.020897 6.333832 67.9375 7.91716 C 70.854202 13.083801 72.333397 18.7192 73.4636 24.453598 C 74.875 31.979698 75.531303 39.5942 75.630203 47.287003 C 75.630203 50.401505 77.036499 51.979698 80.119797 52.073395 C 82.093803 52.172401 84.046898 51.885895 86.020897 51.417198 C 91.921898 49.813004 97.828201 47.948395 103.635002 46.250504 C 109.254997 44.646301 114.875 43.063004 120.495003 41.552597 C 122.094002 41.177597 123.765999 41.177597 125.364998 41.365097 C 128.093994 41.646301 129.197998 43.630699 128.468994 46.250504 C 127.901001 48.417198 126.495003 50.188004 124.635002 51.318199 C 118.542 55.073395 112.546997 58.6567 106.739998 62.4067 C 102.438004 65.146301 98.390701 68.234901 94.2761 71.255699 C 93.145897 72.104698 92.302101 73.234901 91.453201 74.271301 C 90.135498 76.162003 90.229202 77.385902 91.640701 79.250504 C 99.333397 89.771301 105.890999 101.072998 111.703003 112.818001 C 112.171997 113.761002 112.546997 114.803001 112.734001 115.745003 C 113.109001 117.818001 111.984001 119.213997 109.818001 119.402 C 107.938004 119.588997 106.177002 119.120003 104.859001 117.796997 C 100.552002 113.954002 96.416702 110.084 92.208397 106.239998 C 91.265701 105.598999 90.515701 104.750999 89.666702 104.088997 Z"/>
</svg>
