<svg width="114" height="33" viewBox="0 0 114 33" fill="none" xmlns="http://www.w3.org/2000/svg">
<path d="M4.76514 0.249756C6.23955 0.249756 7.40769 0.70067 8.28379 1.6025C9.09578 2.4627 9.50178 3.56571 9.50178 4.90458V7.74187C9.50178 9.03218 9.0388 10.1282 8.11996 11.044C7.194 11.9597 6.08285 12.4175 4.76514 12.4175H3.02718V19.7709H0V0.249756H4.76514ZM6.57432 4.95314C6.57432 4.44673 6.41762 4.0305 6.10422 3.72527C5.79082 3.41309 5.37057 3.26048 4.85061 3.26048H3.02718V9.50391H4.85061C5.32784 9.50391 5.74096 9.33742 6.07573 9.00443C6.4105 8.67145 6.58144 8.2691 6.58144 7.80431V4.95314H6.57432Z" fill="#742745"/>
<path d="M12.2583 19.7708V0.23584H20.8626V3.19106H15.2784V8.51879H19.3597V11.481H15.2784V16.8087H20.8626V19.7708H12.2583Z" fill="#742745"/>
<path d="M28.0637 0C29.3957 0 30.5282 0.457852 31.4613 1.37355C32.3944 2.28926 32.8645 3.39226 32.8645 4.67564V15.3311C32.8645 16.6283 32.3944 17.7313 31.4542 18.6401C30.514 19.5489 29.3815 20.0067 28.0637 20.0067C26.7318 20.0067 25.5993 19.5489 24.6733 18.6332C23.7473 17.7175 23.2844 16.6145 23.2844 15.3311V4.67564C23.2844 3.37839 23.7545 2.27538 24.6947 1.36662C25.6278 0.457852 26.7532 0 28.0637 0ZM29.7162 4.6132C29.7162 4.14841 29.5453 3.74606 29.2105 3.42001C28.8757 3.09397 28.4697 2.92748 27.9854 2.92748C27.5082 2.92748 27.095 3.09397 26.7532 3.42001C26.4113 3.74606 26.2403 4.14148 26.2403 4.6132V15.3033C26.2403 15.7681 26.4113 16.1705 26.7532 16.4965C27.095 16.8226 27.5082 16.9891 27.9854 16.9891C28.4626 16.9891 28.8757 16.8226 29.2105 16.4965C29.5453 16.1705 29.7162 15.7751 29.7162 15.3033V4.6132Z" fill="#742745"/>
<path d="M39.2536 0.23584L43.2637 13.3679V0.23584H46.2909V19.7708H43.0429L38.8832 7.25623V19.7708H35.856V0.23584H39.2536Z" fill="#742745"/>
<path d="M53.1074 11.5919L49.0616 0.23584H52.388L54.6317 7.24929L56.854 0.23584H60.1945L56.1274 11.5989V19.7708H53.1003V11.5919H53.1074Z" fill="#742745"/>
<path d="M75.6866 19.7709H67.4526V0.249756H70.4798V16.8434H75.6937V19.7709H75.6866Z" fill="#742745"/>
<path d="M81.9902 15.2895L81.2566 19.7778H78.1083L81.513 0.249756H85.6727L89.0347 19.7709H85.8579L85.1528 15.2825H81.9902V15.2895ZM83.5786 4.72421L82.4604 12.4244H84.6969L83.5786 4.72421Z" fill="#742745"/>
<path d="M95.3099 0.23584L99.32 13.3679V0.23584H102.347V19.7708H99.0992L94.9395 7.25623V19.7708H91.9123V0.23584H95.3099Z" fill="#742745"/>
<path d="M105.389 19.7708V0.23584H113.993V3.19106H108.409V8.51879H112.49V11.481H108.409V16.8087H113.993V19.7708H105.389Z" fill="#742745"/>
<path d="M29.6379 32.9029L28.1777 24.9668H29.467L30.4926 31.1547L31.5254 24.9668H32.8147L31.3331 32.9029H29.6379Z" fill="#742745"/>
<path d="M36.9031 32.903H35.6709V24.96H36.9031V32.903Z" fill="#742745"/>
<path d="M41.2124 24.9529L42.8435 30.2945V24.9529H44.0758V32.8959H42.758L41.0699 27.811V32.8959H39.8377V24.9529H41.2124Z" fill="#742745"/>
<path d="M47.0032 32.9028V24.9529H50.5005V26.1599H48.2283V28.3243H49.888V29.5314H48.2283V31.6958H50.5005V32.9028H47.0032Z" fill="#742745"/>
<path d="M54.8312 29.573L53.1858 24.9529H54.5391L55.4508 27.804L56.3554 24.9529H57.7159L56.0563 29.573V32.9028H54.824V29.573H54.8312Z" fill="#742745"/>
<path d="M60.8143 31.0785L60.5151 32.903H59.233L60.6149 24.96H62.303L63.6776 32.903H62.3813L62.0964 31.0785H60.8143ZM61.4553 26.7844L60.9995 29.9131H61.9112L61.4553 26.7844Z" fill="#742745"/>
<path d="M68.4784 24.96C69.1622 24.96 69.6679 25.1403 69.9884 25.508C70.2733 25.8271 70.4087 26.278 70.4087 26.8538V28.0054C70.4087 28.5673 70.1879 29.039 69.7534 29.4344L70.6651 32.903H69.3331L68.5924 29.9131C68.5567 29.9131 68.5211 29.9131 68.4784 29.9131H67.7661V32.903H66.5339V24.96H68.4784ZM69.212 26.8746C69.212 26.4168 68.977 26.1809 68.5069 26.1809H67.7661V28.7199H68.5069C68.6992 28.7199 68.8701 28.6505 69.0055 28.5187C69.1408 28.3869 69.212 28.2204 69.212 28.0331V26.8746Z" fill="#742745"/>
<path d="M77.4175 31.0021C77.4175 31.5293 77.2323 31.9733 76.8548 32.3479C76.4773 32.7225 76.0214 32.9028 75.4872 32.9028H73.5569V24.9529H75.4872C76.0214 24.9529 76.4844 25.1402 76.8548 25.5079C77.2323 25.8825 77.4175 26.3264 77.4175 26.8467V31.0021ZM74.7821 31.7166H75.5228C75.7152 31.7166 75.8861 31.6472 76.0143 31.5085C76.1496 31.3697 76.2137 31.2102 76.2137 31.0229V26.8675C76.2137 26.6802 76.1425 26.5137 76.0072 26.3819C75.8718 26.2501 75.708 26.1808 75.5157 26.1808H74.7749V31.7166H74.7821Z" fill="#742745"/>
<path d="M84.3194 30.9259C84.3266 31.4808 84.177 31.9526 83.8778 32.348C83.6784 32.6116 83.3935 32.7989 83.0302 32.9099C82.8379 32.9723 82.61 33.0001 82.3464 33.0001C81.8621 33.0001 81.4632 32.8821 81.1498 32.6532C80.8863 32.4659 80.6726 32.2023 80.523 31.8762C80.3663 31.5502 80.2808 31.1756 80.2523 30.7524L81.4205 30.6692C81.4703 31.134 81.5985 31.467 81.798 31.6751C81.9475 31.8346 82.1114 31.904 82.3037 31.8971C82.5743 31.8901 82.788 31.7583 82.9447 31.5086C83.0302 31.3837 83.0658 31.2103 83.0658 30.9814C83.0658 30.6484 82.9091 30.3223 82.6028 29.9963C82.3607 29.7743 81.9974 29.4344 81.5131 28.9904C81.1071 28.6089 80.815 28.262 80.6512 27.9568C80.466 27.6168 80.3805 27.2422 80.3805 26.8399C80.3805 26.1184 80.6298 25.5704 81.1284 25.1958C81.4347 24.9738 81.8193 24.8628 82.2752 24.8628C82.7168 24.8628 83.0872 24.9599 83.4006 25.1472C83.6428 25.2929 83.8422 25.501 83.9918 25.7716C84.1414 26.0352 84.234 26.3473 84.2624 26.6873L83.0872 26.8954C83.0516 26.5693 82.959 26.3196 82.8023 26.1323C82.6883 26.0005 82.5245 25.9381 82.3108 25.9381C82.0829 25.9381 81.9119 26.0352 81.798 26.2294C81.7054 26.389 81.6555 26.5832 81.6555 26.8121C81.6555 27.1729 81.8193 27.5475 82.1399 27.9221C82.2609 28.0678 82.4461 28.2342 82.6883 28.4285C82.9732 28.6574 83.1655 28.8239 83.251 28.9141C83.5573 29.2124 83.7852 29.5037 83.9562 29.7882C84.0345 29.92 84.0986 30.0448 84.1414 30.1628C84.2553 30.4472 84.3194 30.7039 84.3194 30.9259Z" fill="#742745"/>
</svg>
